<?xml version="1.0" standalone="no"?>
<!DOCTYPE svg PUBLIC "-//W3C//DTD SVG 20010904//EN"
 "http://www.w3.org/TR/2001/REC-SVG-20010904/DTD/svg10.dtd">
<svg version="1.0" xmlns="http://www.w3.org/2000/svg"
 width="1200.000000pt" height="600.000000pt" viewBox="0 0 1200.000000 600.000000"
 preserveAspectRatio="xMidYMid meet">

<g transform="translate(0.000000,600.000000) scale(0.100000,-0.100000)"
fill="#000000" stroke="none">
<path d="M4000 4565 l0 -225 -35 0 c-49 0 -150 -35 -201 -70 -119 -83 -184
-247 -154 -389 l12 -60 -55 -53 c-95 -93 -161 -262 -161 -413 0 -70 6 -94 43
-189 70 -182 85 -257 86 -441 0 -155 -1 -162 -28 -216 -50 -103 -154 -173
-384 -259 -51 -19 -93 -40 -93 -45 0 -19 83 -65 165 -92 62 -21 101 -27 175
-27 100 -1 136 10 187 57 l22 20 -9 -34 c-31 -108 -124 -226 -212 -268 -27
-13 -48 -29 -48 -37 0 -20 99 -46 205 -54 180 -13 359 19 443 80 l42 30 2310
0 2310 0 0 1455 0 1455 -2310 0 -2310 0 0 -225z m4339 -62 c0 -5 -74 -65 -164
-135 l-164 -128 -1699 0 -1699 0 -167 131 c-91 71 -166 132 -166 135 0 2 913
4 2030 4 1117 0 2030 -3 2029 -7z m-3280 -970 l252 -198 -387 -3 -387 -2 6
-68 c14 -146 133 -309 284 -390 181 -96 433 -96 616 0 37 19 94 64 140 110
l79 77 325 -255 c224 -177 328 -252 336 -246 7 5 153 120 326 256 l315 247 25
-33 c66 -86 179 -163 291 -199 91 -30 261 -37 355 -15 117 28 211 79 290 160
39 39 82 94 97 122 31 57 58 152 58 201 l0 33 -384 2 -383 3 251 197 251 198
263 0 262 0 0 -785 0 -785 -2030 0 -2030 0 0 778 c0 428 3 782 7 785 3 4 122
7 263 7 l257 0 252 -197z m2291 192 c0 -6 -1018 -805 -1033 -811 -12 -4 -1029
788 -1035 807 -2 5 401 9 1032 9 570 0 1036 -2 1036 -5z"/>
</g>
</svg>
